<?xml version="1.0" encoding="UTF-8"?><svg xmlns="http://www.w3.org/2000/svg" xmlns:xlink="http://www.w3.org/1999/xlink" width="64px" height="64px" viewBox="0 0 64 64" version="1.1"><title>windy</title><defs><path id="path-1" d="M.06 64V.04H64V64z"/></defs><g id="Page-1" stroke="none" stroke-width="1" fill="none" fill-rule="evenodd"><g id="windy"><g id="Group-3"><mask id="mask-2" fill="#fff"><use xlink:href="#path-1"/></mask><path d="M64 32c0 17.673-14.327 32-32 32C14.327 64 0 49.673 0 32 0 14.327 14.327 0 32 0c17.673 0 32 14.327 32 32" id="Fill-1" fill="#F0CB83" mask="url(#mask-2)"/></g><path d="M32 58a3 3 0 0 1-3-3v-1c0-.216.008-.426.023-.63A3 3 0 0 0 35 53v-1c.001-.3.041-.478.092-.628.09-.252.244-.5.643-.893.293-.288.71-.625 1.21-1.025.744-.604 1.701-1.339 2.563-2.501a7.62 7.62 0 0 0 1.081-2.058c.161-.469.277-.968.344-1.486.044.296.067.606.067.929 0 3.872-2.483 5.858-4.125 7.173C35.379 52.708 35 53.108 35 54v1a3 3 0 0 1-3 3m2.303-14.179c-.985-.529-2.73-1.142-3.797-1.516C26.917 41.044 22 39.318 22 34.61c0-.375.025-.733.073-1.073a5.7 5.7 0 0 0 .232.941c.378 1.116 1.067 1.998 1.792 2.65.639.576 1.319 1.009 2.006 1.379 1.202.642 2.447 1.102 3.645 1.53.897.319 1.766.615 2.536.909 1.155.432 2.086.902 2.482 1.229.1.08.168.145.208.19l.025.031c-.006.265-.044.43-.091.57-.087.244-.234.484-.605.855m-5.394-10.619a4.372 4.372 0 0 1-.675-.429 1.67 1.67 0 0 1-.208-.19l-.025-.03c.007-.211.039-.319.08-.425.041-.099.1-.204.216-.347.198-.249.596-.597 1.165-.997.424-.301.935-.633 1.491-1.024.827-.59 1.785-1.309 2.62-2.421a7.219 7.219 0 0 0 1.038-1.952c.152-.44.261-.906.325-1.387H35v1c0 4.022-2.898 5.988-4.816 7.288-.547.371-.962.665-1.275.914" id="Fill-4" fill="#C1A56E"/><path d="M35 53v-1c.001-.3.041-.478.092-.628.09-.252.244-.5.643-.893.293-.288.71-.625 1.21-1.025.744-.604 1.701-1.339 2.563-2.501a7.62 7.62 0 0 0 1.081-2.058c.27-.786.412-1.656.411-2.557a5.81 5.81 0 0 0-.305-1.868c-.378-1.116-1.067-1.998-1.792-2.65-.639-.576-1.319-1.008-2.006-1.379-1.202-.642-2.447-1.101-3.645-1.53-.897-.319-1.766-.615-2.536-.909-1.155-.432-2.086-.902-2.482-1.229a1.67 1.67 0 0 1-.208-.19l-.05-.062-.002-.003-.185.104.203-.054-.018-.05-.185.104.203-.054-.245.065.252-.032-.007-.033-.245.065.252-.032-.074.009H28l-.001-.009-.074.009H28c.002-.249.037-.367.081-.482.041-.099.1-.204.216-.347.198-.249.596-.597 1.165-.997.424-.301.935-.633 1.491-1.024.827-.59 1.785-1.309 2.62-2.421a7.219 7.219 0 0 0 1.038-1.952c.256-.74.39-1.554.389-2.387v-5a3 3 0 1 0-6 0v5a1.218 1.218 0 0 1-.081.482c-.041.099-.1.204-.216.348-.198.249-.596.596-1.165.996-.424.301-.935.634-1.49 1.025-.828.589-1.786 1.308-2.621 2.42a7.206 7.206 0 0 0-1.038 1.952A7.307 7.307 0 0 0 22 32.61a5.805 5.805 0 0 0 .305 1.868c.378 1.116 1.067 1.998 1.792 2.65.639.576 1.319 1.009 2.006 1.379 1.202.642 2.447 1.102 3.645 1.53.897.319 1.766.615 2.536.909 1.155.432 2.086.902 2.482 1.229.1.08.168.145.208.19l.05.062.002.003.185-.104-.204.054.019.05.185-.104-.204.054.247-.065-.253.032.006.033.247-.065-.253.032.073-.009H35l.001.009.073-.009H35c-.001.3-.041.477-.092.628-.09.252-.244.5-.643.893-.293.288-.71.625-1.21 1.024-.744.604-1.701 1.34-2.563 2.501a7.641 7.641 0 0 0-1.081 2.059A7.873 7.873 0 0 0 29 52v1a3 3 0 1 0 6 0" id="Fill-5" fill="#4C5665"/><path d="M40.561 24H35v-4-2a3 3 0 1 0-6 0v5a1.218 1.218 0 0 1-.081.482c-.041.099-.1.204-.216.348a2.329 2.329 0 0 1-.152.17h-5.112c-1.472 0-1.883-1.088-.914-2.418l7.713-10.585C30.723 10.332 31.361 10 32 10s1.277.332 1.762.997l7.713 10.585c.969 1.33.558 2.418-.914 2.418" id="Fill-6" fill="#C1A56E"/><path d="M35 24h-.064c.043-.328.064-.662.064-1v-3.01V24m-6-1v-3-.007V23" id="Fill-7" fill="#9F895E"/><path d="M34.936 24h-6.385c.06-.061.11-.118.152-.17.116-.144.175-.249.216-.348.044-.115.079-.233.081-.482v-5a3 3 0 1 1 6 0v5c0 .338-.021.672-.064 1" id="Fill-8" fill="#414A55"/><path d="M23.439 22c-1.472 0-1.883-1.088-.914-2.418l7.713-10.585c.969-1.329 2.555-1.329 3.524 0l7.713 10.585c.969 1.33.558 2.418-.914 2.418H23.439" id="Fill-9" fill="#4C5665"/></g></g><metadata><rdf:RDF xmlns:rdf="http://www.w3.org/1999/02/22-rdf-syntax-ns#" xmlns:rdfs="http://www.w3.org/2000/01/rdf-schema#" xmlns:dc="http://purl.org/dc/elements/1.1/"><rdf:Description about="https://iconscout.com/legal#licenses" dc:title="windy" dc:description="windy" dc:publisher="Iconscout" dc:date="2017-09-25" dc:format="image/svg+xml" dc:language="en"><dc:creator><rdf:Bag><rdf:li>Elegant Themes</rdf:li></rdf:Bag></dc:creator></rdf:Description></rdf:RDF></metadata></svg>